<?xml version="1.0" encoding="UTF-8"?>
<svg width="159px" height="159px" viewBox="0 0 159 159" version="1.1" xmlns="http://www.w3.org/2000/svg" xmlns:xlink="http://www.w3.org/1999/xlink">
    <title>编组 26备份</title>
    <defs>
        <rect id="path-1" x="0" y="0" width="157" height="157" rx="16"></rect>
    </defs>
    <g id="页面-1" stroke="none" stroke-width="1" fill="none" fill-rule="evenodd">
        <g id="编组-26备份" transform="translate(1, 1)">
            <mask id="mask-2" fill="white">
                <use xlink:href="#path-1"></use>
            </mask>
            <rect stroke="#E3E3E3" x="-0.5" y="-0.5" width="158" height="158" rx="16"></rect>
            <g id="编组-26" mask="url(#mask-2)" fill-rule="nonzero">
                <g transform="translate(10, 22)">
                    <path d="M94.817611,135 L5.86333058,135 C4.65242535,135 3.47338605,134.792977 2.38994453,134.394856 C1.5295645,134.092284 0.732916322,133.694162 0,133.184567 C4.25410126,101.525966 35.5585979,65.8416442 56.0005901,62.3381773 C59.1393839,61.7967324 62.0391833,62.05153 64.7159212,62.9433216 C71.2165703,65.1091011 76.3469845,71.0968445 80.3939573,78.7407723 C81.0312758,79.9192111 81.6207955,81.09765 82.1784492,82.3557131 C90.989378,101.449608 94.2280913,128.980407 94.817611,135 Z" id="路径" fill="#B75542"></path>
                    <path d="M48.3862268,28.0057943 C48.3862268,28.0057943 42.5531689,11.0872341 47.591172,3.64236701 C52.0890476,-2.99988771 74.1864747,0.52428148 82.0414257,5.62023332 C89.8963767,10.7177776 90.156084,17.4093994 90.156084,17.4093994 C90.156084,17.4093994 94.0038947,18.4269973 94.897734,21.7345885 C95.7915732,25.0421798 92.9284197,30.4837008 92.9284197,30.4837008 C92.9284197,30.4837008 89.0280302,25.5358501 83.4483064,28.6905628 C77.8685826,31.8452755 48.3862268,28.0057943 48.3862268,28.0057943 Z" id="路径" fill="#000000"></path>
                    <path d="M91.7222943,136 L30.8583737,136 C31.575357,128.658644 32.1170778,122.040438 32.1170778,122.040438 L54.5028915,62.4815009 L63.2182226,63.0547955 C63.2341556,63.0547955 80.1549628,62.9162493 80.1549628,62.9162493 C80.1708958,62.9799487 79.9781069,64.8367862 79.9781069,64.9004856 C79.9781069,64.9164104 86.1425705,68.5632009 81.3945474,66.7748403 L84.6384988,81.1072049 L91.5470317,135.138466 L91.7222943,136 Z" id="路径" fill="#FCB35B"></path>
                    <path d="M78.0677446,54.3916774 L78.6046855,67.2732881 C78.6046855,67.2732881 73.8949015,71.5809599 67.6778591,71.8946795 C59.2827806,72.3198729 56.1057477,65.9738204 56.1057477,65.9738204 L55.661218,50.8659157 L78.0677446,54.3916774 Z" id="路径" fill="#F98575"></path>
                    <path d="M78.0661513,54.3725676 C78.0661513,54.3725676 75.7829576,65.9308233 66.1992801,64.8272313 C58.4749793,63.9370322 55.7345096,52.2402302 55.7345096,52.2402302 L78.0661513,54.3725676 Z" id="路径" fill="#000000"></path>
                    <path d="M50.7952909,18.5543961 C50.7952909,18.5543961 47.1211495,41.7569018 54.9904402,52.5380249 C62.8597309,63.3207405 72.4959873,59.7551667 76.7516818,56.2501073 C82.4923286,51.523612 83.4881388,45.2014467 83.4881388,45.2014467 C83.4881388,45.2014467 91.6426295,46.5407266 94.1202054,39.8491048 C96.7236516,32.8198763 91.4912664,27.3926875 87.4283607,27.1984044 C83.365455,27.0041212 82.9177387,27.7573666 82.9177387,27.7573666 L83.8577835,20.310907 C83.8593768,20.310907 58.3108698,-6.22148477 50.7952909,18.5543961 Z" id="路径" fill="#F98575"></path>
                    <path d="M55.0605453,29.2256377 C55.0605453,29.2256377 42.607341,24.4004083 41.9716157,33.9346157 C41.2339195,44.9800913 54.4009206,44.6392995 54.4009206,44.6392995 L55.0605453,29.2256377 Z" id="路径" fill="#F98575"></path>
                    <path d="M84.9236988,28.4214328 C84.9236988,28.4214328 80.7046501,30.3499321 71.4444117,24.0516541 C62.1841733,17.7533761 64.5454385,9.86261322 64.5454385,9.86261322 C64.5454385,9.86261322 52.4475392,18.0113587 50.0018293,27.7732914 C47.5561194,37.5352242 45.2538062,5.17593002 59.3019002,5.336771 C73.3484008,5.49601949 94.6443999,13.9234498 84.9236988,28.4214328 Z" id="路径" fill="#000000"></path>
                    <path d="M56.0005901,62.3381773 C56.0005901,62.3381773 49.3565443,87.6235728 43.8596719,135 L23.6088753,135 C25.8936622,87.0630181 52.4746253,63.217229 52.4746253,63.217229 L56.0005901,62.3381773 Z" id="路径" fill="#B75542"></path>
                    <path d="M136,134.856676 C135.458279,134.952225 134.900626,135 134.327039,135 L88.6312994,135 C85.9226956,116.256452 82.274047,90.2225887 80.3939573,77.1164376 C79.7407058,72.530081 79.1033872,68.0870479 78.4979346,63.9306622 C78.4820017,63.8191883 78.4660687,63.7714137 78.4501357,63.7077143 C78.3864039,63.1503446 78.3067391,62.6088997 78.2111413,62.05153 C78.2111413,62.05153 128.52744,67.2716151 136,134.856676 Z" id="路径" fill="#B75542"></path>
                    <path d="M84.6369055,39.619787 C84.4488965,39.619787 84.2608875,39.5560876 84.1063378,39.4239113 C83.7621858,39.1308941 83.7207601,38.614929 84.0139266,38.2693598 L89.3100437,32.0602609 C89.6048035,31.7162842 90.1210315,31.6764721 90.4635902,31.9678968 C90.8077422,32.260914 90.8491679,32.7768792 90.5560014,33.1224484 L85.2598843,39.3315472 C85.0973681,39.5226454 84.8679334,39.619787 84.6369055,39.619787 Z" id="路径" fill="#000000"></path>
                    <path d="M90.4827098,37.7326923 C90.4540304,37.7326923 90.4269444,37.7310998 90.3998584,37.7295074 L86.4994689,37.3393485 C86.048566,37.294759 85.7219403,36.8934528 85.7649593,36.4427795 C85.8111649,35.9921063 86.2317951,35.6592769 86.6619851,35.7102364 L90.5623746,36.1003952 C91.0132775,36.1449848 91.3399032,36.546291 91.2968842,36.9969643 C91.2538652,37.4173803 90.8985601,37.7326923 90.4827098,37.7326923 Z" id="路径" fill="#000000"></path>
                    <path d="M72.1470554,32.0156714 C71.6993391,32.0156714 71.3328809,31.6557698 71.328101,31.2082815 L71.2818954,27.3353581 C71.2755222,26.8830924 71.6387938,26.5120434 72.09129,26.5072659 C72.548566,26.5072659 72.9150242,26.8671675 72.9198041,27.3146558 L72.9660097,31.1875792 C72.9723829,31.6398449 72.6091113,32.0108939 72.1566151,32.0156714 C72.1534285,32.0156714 72.1502419,32.0156714 72.1470554,32.0156714 Z" id="路径" fill="#000000"></path>
                    <path d="M57.7245368,32.740252 C57.2640741,32.7354746 56.9008025,32.366018 56.9055824,31.9137523 L56.9470081,28.0408289 C56.951788,27.5885632 57.3580786,27.239809 57.7755222,27.2318466 C58.2264251,27.236624 58.5896967,27.6060805 58.5849168,28.0583463 L58.5434911,31.9312697 C58.5371179,32.3803504 58.172253,32.740252 57.7245368,32.740252 Z" id="路径" fill="#000000"></path>
                    <path d="M49.3469845,39.2200733 C49.0936504,39.2200733 48.8435029,39.1022294 48.68258,38.880874 L44.1639915,32.6144457 C43.8995043,32.2481742 43.983949,31.7369865 44.3488139,31.472634 C44.715272,31.209874 45.2283135,31.2910907 45.4928007,31.6589547 L50.0113891,37.925383 C50.2758763,38.2916545 50.1914316,38.8028422 49.8265667,39.0671947 C49.6815768,39.1707062 49.5126874,39.2200733 49.3469845,39.2200733 Z" id="路径" fill="#000000"></path>
                    <path d="M44.1671781,37.504967 C43.7640741,37.504967 43.4119556,37.2071723 43.3577835,36.7963112 C43.2972383,36.3488229 43.6111177,35.9363693 44.0588339,35.8758549 L47.6517172,35.3917394 C48.0946536,35.3360025 48.5120973,35.6449446 48.5710492,36.0940253 C48.6315945,36.5415136 48.3177151,36.9539672 47.8699988,37.0144816 L44.2771155,37.498597 C44.2404697,37.501782 44.2038239,37.504967 44.1671781,37.504967 Z" id="路径" fill="#000000"></path>
                    <path d="M65.0983123,43.8080224 C64.8433849,43.8080224 64.591644,43.688586 64.4307211,43.4640457 C61.1533105,38.8490243 63.7296707,32.842171 63.8396082,32.5889659 C64.021244,32.1765123 64.4992329,31.9854141 64.9182698,32.1685499 C65.3325268,32.3500932 65.5205358,32.8326161 65.3404933,33.2450697 C65.3165939,33.2992142 63.0318069,38.664296 65.7674968,42.5165171 C66.0287974,42.8843811 65.9411661,43.3955688 65.5747079,43.6567363 C65.4281246,43.7586554 65.2624218,43.8080224 65.0983123,43.8080224 Z" id="路径" fill="#000000"></path>
                    <path d="M70.5362327,48.558405 C69.2408828,48.558405 68.0443172,47.8577116 67.8658681,47.7494227 C67.6332468,47.6076915 67.4882568,47.3592638 67.4755104,47.0885414 C67.4627641,46.817819 67.5870412,46.5582439 67.8053228,46.394218 L72.290452,43.054777 C72.5310398,42.8732337 72.8544789,42.8429765 73.1269326,42.9703753 C73.4009796,43.0993666 73.5810221,43.3684966 73.5953617,43.6694762 C73.7116724,45.9658395 73.182698,47.4818852 72.0227782,48.1698387 C71.5479759,48.453301 71.0333412,48.558405 70.5362327,48.558405 Z M69.9451198,46.8417062 C70.3864629,46.9436253 70.8485188,46.9659201 71.1894842,46.762082 C71.5384161,46.5534665 71.7774106,46.0820909 71.8921279,45.3909524 L69.9451198,46.8417062 Z" id="形状" fill="#000000"></path>
                    <path d="M55.4206302,25.069252 C55.129057,25.069252 54.8486368,24.9131885 54.7004603,24.6392811 C54.4853653,24.2411598 54.6335418,23.7443045 55.0318659,23.5309115 L58.3363626,21.7489209 C58.7346867,21.5355279 59.2317951,21.6820365 59.4452968,22.0801578 C59.6603918,22.478279 59.5122153,22.9751343 59.1138912,23.1885273 L55.8093945,24.9705179 C55.6851174,25.0389948 55.5528738,25.069252 55.4206302,25.069252 Z" id="路径" fill="#000000"></path>
                    <path d="M73.4280656,24.7268677 C73.3276879,24.7268677 73.2273103,24.7077579 73.1317125,24.6695383 L68.1861206,22.737854 C67.7638971,22.5738281 67.5551753,22.0992676 67.7208781,21.6772591 C67.8865809,21.256843 68.3693497,21.053005 68.7804202,21.2122535 L73.726012,23.1439377 C74.1482356,23.3079637 74.3569574,23.7825242 74.1912546,24.2045327 C74.0653842,24.5293996 73.7546914,24.7268677 73.4280656,24.7268677 Z" id="路径" fill="#000000"></path>
                    <path d="M67.3289272,73.1957397 C66.7649003,73.1957397 66.20406,73.15752 65.6432196,73.0810807 C59.2381683,72.2068065 55.5863331,66.6410716 55.4333766,66.4053838 C55.1975687,66.0375198 55.3027263,65.5438495 55.6707778,65.3065692 C56.0372359,65.0724739 56.5311578,65.1728005 56.7717455,65.542257 C56.8052048,65.594809 60.1973327,70.7401279 65.8726543,71.5061131 C69.7666706,72.0348181 73.8741886,70.408891 78.0725245,66.6776988 C78.3991502,66.386274 78.9010386,66.4133463 79.1973917,66.7445831 C79.4889649,67.072635 79.4602856,67.5758603 79.1304733,67.8688775 C75.150419,71.4089715 71.1878909,73.1957397 67.3289272,73.1957397 Z" id="路径" fill="#507849"></path>
                </g>
            </g>
        </g>
    </g>
</svg>