<?xml version="1.0" encoding="UTF-8"?>
<svg width="159px" height="159px" viewBox="0 0 159 159" version="1.1" xmlns="http://www.w3.org/2000/svg" xmlns:xlink="http://www.w3.org/1999/xlink">
    <title>编组 25备份</title>
    <defs>
        <rect id="path-1" x="0" y="0" width="157" height="157" rx="16"></rect>
    </defs>
    <g id="页面-1" stroke="none" stroke-width="1" fill="none" fill-rule="evenodd">
        <g id="编组-25备份" transform="translate(1, 1)">
            <mask id="mask-2" fill="white">
                <use xlink:href="#path-1"></use>
            </mask>
            <rect stroke="#E3E3E3" x="-0.5" y="-0.5" width="158" height="158" rx="16"></rect>
            <g id="编组-25" mask="url(#mask-2)">
                <g transform="translate(8.0602, 18.5519)">
                    <path d="M56.5557585,25.1707748 C56.5557585,25.1707748 29.7048453,35.4384298 28.3352278,65.8265058 C26.3550172,109.747378 78.9975827,99.5657367 78.9975827,99.5657367 C78.9975827,99.5657367 108.813752,102.658851 117.060131,80.6815493 C125.308197,58.7042478 98.7980017,45.4379249 98.7980017,45.4379249 C98.7980017,45.4379249 66.6558444,17.1344122 56.5557585,25.1707748 Z" id="路径" fill="#000000" fill-rule="nonzero"></path>
                    <g id="编组-24" stroke-width="1" fill="none" fill-rule="evenodd" transform="translate(68.4354, 67.9563)">
                        <path d="M15.290072,7.2439821 C5.71286957,7.2439821 0.293434671,1.49119447 0.220905663,1.41361364 C-0.0928244614,1.07124604 -0.069210366,0.538299425 0.271507296,0.222916462 C0.615598401,-0.0924665009 1.14860227,-0.0705414821 1.46233239,0.271826119 C1.81823055,0.656357218 10.3614729,9.64055531 25.4626869,3.38517879 C25.8911141,3.20977864 26.3870101,3.41047689 26.5641158,3.8422311 C26.7429082,4.27229878 26.538815,4.76476843 26.1070144,4.94354166 C22.0774377,6.61490271 18.4560475,7.2439821 15.290072,7.2439821 Z" id="路径" fill="#F7B369" fill-rule="nonzero"></path>
                        <path d="M41.700751,65.4498474 C41.5843672,65.4498474 41.46461,65.4245493 41.3515997,65.3739531 C40.9282327,65.180001 40.7410067,64.6807852 40.9349796,64.2574637 C50.9810905,42.2683564 37.7959916,26.2428542 37.6627406,26.0843194 C37.3625043,25.7284595 37.4080458,25.1971994 37.7622572,24.8953088 C38.1198421,24.5951047 38.6494725,24.6406412 38.9513956,24.9948146 C39.0913934,25.1617821 52.9731081,41.9681523 42.4698958,64.9573777 C42.3265245,65.2677011 42.021228,65.4498474 41.700751,65.4498474 Z" id="路径" fill="#F7B369" fill-rule="nonzero"></path>
                    </g>
                    <g id="编组-23" stroke-width="1" fill="none" fill-rule="evenodd" transform="translate(0, 64.0894)">
                        <path d="M141.684572,73.8640154 C140.782515,74.0992063 139.826335,74.2077559 138.852114,74.2077559 L104.790444,74.2077559 C103.635811,71.4759231 102.499219,69.3230218 101.470874,69.7934036 C100.659023,70.1733273 99.8291304,70.5351595 98.9811968,70.8789001 C94.3085419,38.2959139 105.36776,13.4923193 105.36776,13.4923193 C105.36776,13.4923193 127.54032,32.9407979 141.684572,73.8640154 Z" id="路径" fill="#92B4EA" fill-rule="nonzero"></path>
                        <path d="M123.13064,74.2077559 L31.2789483,74.2077559 C30.6462364,73.8668068 29.995447,73.5079129 29.3627351,73.149019 C27.9707688,72.3953419 26.5968801,71.569886 25.2591464,70.6905961 C24.6987444,70.3317022 24.1383424,69.9728083 23.6140954,69.5780251 C25.2953013,50.9693783 28.9650304,34.1552008 36.0694813,24.608624 C42.7219951,15.7260009 50.1337632,10.0195884 57.0755168,6.3768157 C71.5013483,-1.17790013 84.0832766,0.0782283961 84.0832766,0.0782283961 C105.414707,2.89554523 117.038528,26.2774804 119.768228,41.2612993 C120.274398,44.024782 122.190611,61.9156411 123.13064,74.2077559 Z" id="路径" fill="#F7B369" fill-rule="nonzero"></path>
                        <path d="M61.2539483,59.2300763 C59.3223363,65.2920484 56.5223849,70.2196164 53.2971244,74.2077559 L45.2871369,74.2077559 L43.958046,73.8355296 C43.8871612,73.8178045 43.8339975,73.8000794 43.7631127,73.7823544 C41.4947977,73.0910769 39.2264826,72.311174 37.0467736,71.4249208 C36.9758888,71.3894706 36.9050039,71.3717456 36.8341191,71.3362955 C35.2746525,70.7159182 33.7329071,70.0423657 32.2266041,69.3156381 C31.2164951,68.8547864 30.2241072,68.3584846 29.2494406,67.8267326 C27.8849073,67.1354551 26.5380953,66.3732773 25.2267256,65.5756494 C24.6773681,65.2565983 24.1280105,64.919822 23.6140954,64.5653207 C25.2621681,47.5315335 28.859574,32.1461774 35.82401,23.4254455 C42.3454158,15.2896408 49.6111124,10.0784718 56.4160576,6.74615963 C60.722312,16.2822444 68.2183844,37.4991469 61.2539483,59.2300763 Z" id="路径" fill="#92B4EA" fill-rule="nonzero"></path>
                        <path d="M50.601633,10.1192394 L45.1572687,74.2077559 L0,74.2077559 C1.32922606,69.5918144 4.62497833,61.2866841 9.19533093,53.4092858 C24.1263633,26.1948351 50.601633,10.1192394 50.601633,10.1192394 Z" id="路径" fill="#92B4EA" fill-rule="nonzero"></path>
                    </g>
                    <path d="M68.6579824,52.1908307 L69.2786957,68.7998757 C69.2786957,68.7998757 72.3906962,73.8999724 82.7775247,74.3553381 C90.5145144,74.6943327 93.2638698,72.4950846 93.2638698,72.4950846 L92.0612376,64.88373 L90.6747529,56.1811841 L71.8222712,52.7659408 L68.6579824,52.1908307 Z" id="路径" fill="#F98575" fill-rule="nonzero"></path>
                    <path d="M68.6579824,51.3475607 C68.7203911,51.8299111 68.926171,52.3932155 69.2365277,53.0357872 C73.5275462,61.7299004 87.5914267,64.6526741 92.0612376,64.8854166 L90.6747529,56.1828706 L68.6579824,51.3475607 Z" id="路径" fill="#000000" fill-rule="nonzero"></path>
                    <path d="M93.1154383,15.690734 C93.1154383,15.690734 103.234078,37.5364854 100.032682,50.0017019 C96.8312849,62.4686049 85.4982058,60.7651996 78.6905995,58.5170419 C71.8829931,56.2688842 68.6562957,52.1958903 68.6562957,52.1958903 C68.6562957,52.1958903 62.3935002,54.4727192 58.0434465,48.6980065 C53.6950795,42.9232939 56.1458853,36.1282246 59.7149871,34.5057732 C63.284089,32.8833218 67.6257091,35.3912067 67.6257091,35.3912067 L64.1274495,29.0548762 C64.1291362,29.0531897 77.5470026,-3.8292789 93.1154383,15.690734 Z" id="路径" fill="#F98575" fill-rule="nonzero"></path>
                    <path d="M96.3826171,24.7676918 C96.3421358,24.7676918 96.2999678,24.7643187 96.2577997,24.7592591 L91.938107,24.1183739 C91.4776321,24.0492258 91.1588419,23.6208446 91.2279974,23.1604192 C91.297153,22.6999938 91.7255801,22.391357 92.186055,22.4503859 L96.5057477,23.0912711 C96.9662226,23.1604192 97.2850129,23.5888004 97.2158573,24.0492258 C97.1534486,24.4674877 96.7924903,24.7676918 96.3826171,24.7676918 Z" id="路径" fill="#000000" fill-rule="nonzero"></path>
                    <path d="M80.2710572,26.5537375 C79.9421465,26.5537375 79.6301031,26.3597854 79.4934787,26.0376563 C79.3129996,25.6075886 79.5154061,25.1134325 79.9438333,24.9329727 L84.9567684,22.8281709 C85.3868823,22.6510842 85.8810915,22.8500959 86.0615707,23.278477 C86.2420498,23.7085447 86.0396433,24.2027009 85.6112162,24.3831607 L80.598281,26.489649 C80.4920176,26.5318125 80.380694,26.5537375 80.2710572,26.5537375 Z" id="路径" fill="#000000" fill-rule="nonzero"></path>
                    <path d="M92.9821874,42.6821187 C92.9535131,42.6821187 92.9248388,42.6804321 92.8961646,42.6787456 C92.4323163,42.6315225 92.0949721,42.2183202 92.1422003,41.7545217 C92.8354426,34.9358409 90.0084981,31.5037322 89.9798238,31.4700014 C89.6795875,31.1141414 89.7217555,30.5845679 90.0759669,30.2826773 C90.4284916,29.9807866 90.958122,30.0212636 91.2617318,30.3720639 C91.3983563,30.5305986 94.5913193,34.3337461 93.8221745,41.9248623 C93.776633,42.358303 93.4089278,42.6821187 92.9821874,42.6821187 Z" id="路径" fill="#000000" fill-rule="nonzero"></path>
                    <path d="M86.0936184,50.0657904 C85.7596476,50.0657904 85.4121831,50.0202538 85.0529115,49.9190614 C82.2647615,49.121328 81.9510314,45.9236484 81.9392243,45.7887252 C81.9156102,45.5155057 82.0252471,45.2490324 82.2344005,45.0719457 C82.4435539,44.894859 82.7269231,44.829084 82.9917383,44.8999187 L89.5412763,46.5965778 C89.8145251,46.6674125 90.0337989,46.8697973 90.1265685,47.1362706 C90.2193382,47.4027439 90.17211,47.6978884 90.0017512,47.9221982 C89.924162,48.0200175 88.3403309,50.0657904 86.0936184,50.0657904 Z M83.9801569,46.8967819 C84.251719,47.4685189 84.7189407,48.0689271 85.5167598,48.29661 C86.3162656,48.5293525 87.063483,48.2224023 87.6268479,47.8412443 L83.9801569,46.8967819 Z" id="形状" fill="#000000" fill-rule="nonzero"></path>
                    <path d="M67.65607,44.5018952 C67.5396863,44.5018952 67.4216158,44.4782837 67.3086055,44.4260009 L58.4145251,40.3833648 C57.9911581,40.1910992 57.8039321,39.6901969 57.9962183,39.2668754 C58.1885045,38.8452404 58.6860872,38.6529748 59.1128277,38.8486135 L68.006908,42.8912496 C68.430275,43.0835152 68.6175011,43.5844175 68.4252149,44.007739 C68.2835303,44.3180624 67.9782338,44.5018952 67.65607,44.5018952 Z" id="路径" fill="#000000" fill-rule="nonzero"></path>
                    <path d="M59.733541,46.5577874 C59.515954,46.5577874 59.298367,46.4751469 59.1330683,46.3081795 C58.8058444,45.9776177 58.8092179,45.4429845 59.1398152,45.1157958 L63.0614418,41.2401271 C63.3937258,40.9112518 63.9267297,40.9146249 64.2539536,41.2468732 C64.5811775,41.577435 64.577804,42.1120682 64.2472067,42.4392569 L60.3255801,46.3149256 C60.1602815,46.4768335 59.9460679,46.5577874 59.733541,46.5577874 Z" id="路径" fill="#000000" fill-rule="nonzero"></path>
                    <path d="M80.2710572,18.0552629 C80.2710572,18.0552629 85.3362806,17.3317373 90.6207778,20.338838 C95.905275,23.3459386 96.9915234,26.277145 96.9915234,26.277145 C96.9915234,26.277145 100.260389,18.5123153 93.0951977,11.6615902 C85.9300064,4.81086505 72.1849162,2.91182111 64.2607005,11.0173319 C56.3364847,19.1228427 56.8222604,26.277145 56.8222604,26.277145 L67.6273958,35.3912067 C67.6273958,35.3895201 84.3141276,32.3655541 80.2710572,18.0552629 Z" id="路径" fill="#000000" fill-rule="nonzero"></path>
                    <path d="M62.3327783,13.1946549 C62.3327783,13.1946549 52.1382359,-6.16513667 41.8036957,2.01626842 C31.4708423,10.1976735 42.9776536,26.7088992 53.2413515,27.9130887 C63.5067361,29.1172782 62.3327783,13.1946549 62.3327783,13.1946549 Z" id="路径" fill="#000000" fill-rule="nonzero"></path>
                    <path d="M69.8572411,51.3475607 C69.8572411,53.0981891 68.4387086,54.5165692 66.6878921,54.5165692 C64.9370756,54.5165692 63.5185432,53.0981891 63.5185432,51.3475607 C63.5185432,49.5969323 64.9370756,48.1785507 66.6878921,48.1785507 C68.4387086,48.1768657 69.8572411,49.5969323 69.8572411,51.3475607 Z" id="路径" fill="#E6F4FF" fill-rule="nonzero"></path>
                    <path d="M82.7792114,35.6425011 C82.3136764,35.6425011 81.9358509,35.2647162 81.9358509,34.7992311 L81.9358509,30.9218759 C81.9358509,30.7009392 82.0235604,30.4884351 82.1787387,30.3299004 L83.8958208,28.5877047 C84.2230447,28.2554563 84.7560486,28.2520832 85.0900193,28.579272 C85.4206167,28.9064607 85.4256768,29.4410939 85.0984529,29.7733422 L83.6242587,31.2693031 L83.6242587,34.8009177 C83.622572,35.2664027 83.2447465,35.6425011 82.7792114,35.6425011 Z" id="路径" fill="#000000" fill-rule="nonzero"></path>
                    <path d="M95.5223893,35.6425011 C95.0568543,35.6425011 94.6790288,35.2647162 94.6790288,34.7992311 L94.6790288,30.9218759 C94.6790288,30.7009392 94.7667383,30.4884351 94.9219166,30.3299004 L96.6389987,28.5877047 C96.9645359,28.2554563 97.4975398,28.2503967 97.8315105,28.579272 C98.1637946,28.9064607 98.167168,29.4394073 97.8399441,29.7716557 L96.3657499,31.2676166 L96.3657499,34.7992311 C96.3657499,35.2664027 95.9896111,35.6425011 95.5223893,35.6425011 Z" id="路径" fill="#000000" fill-rule="nonzero"></path>
                    <path d="M85.4046574,75.8951755 C74.2127708,75.8951755 68.0391059,69.4250063 67.7279755,69.0884771 C67.3853824,68.719626 67.3818832,68.11882 67.7209763,67.7461701 C68.0600693,67.371619 68.6159056,67.3678195 68.9550028,67.7347694 C69.0441468,67.8279328 77.8851423,77.0378053 93.3751237,72.9025982 C93.8505554,72.7809186 94.3189978,73.0908306 94.4308671,73.5984743 C94.5462322,74.1099205 94.2595774,74.6232657 93.7911374,74.7468466 C90.7427818,75.5605793 87.944375,75.8951755 85.4046574,75.8951755 Z" id="路径" fill="#FFFFFF" fill-rule="nonzero" transform="translate(80.9626, 71.6788) rotate(-3) translate(-80.9626, -71.6788)"></path>
                </g>
            </g>
        </g>
    </g>
</svg>