<?xml version="1.0" encoding="UTF-8"?>
<svg width="32px" height="32px" viewBox="0 0 32 32" version="1.1" xmlns="http://www.w3.org/2000/svg" xmlns:xlink="http://www.w3.org/1999/xlink">
    <title>形状</title>
    <g id="页面-1" stroke="none" stroke-width="1" fill="none" fill-rule="evenodd">
        <g id="生成页面-参考图" transform="translate(-427, -268)" fill="#BFBFBF" fill-rule="nonzero">
            <g id="编组-15" transform="translate(24, 200)">
                <g id="编组-13备份" transform="translate(363, 24)">
                    <g id="编组-9" transform="translate(40, 36)">
                        <path d="M16,8.00759194 C4.32123076,8.00759194 0,18.2239791 0,23.9518714 C0,29.6797637 4.15507691,39.9999229 15.6590769,39.9999229 C15.6590769,39.9999229 18.5206154,40.0516928 18.5206154,37.4716724 C18.5206154,34.8916519 17.2307692,35.7175054 17.2307692,33.8596438 C17.0910965,32.6079727 17.9131652,31.4514977 19.1384615,31.1759287 C19.7538461,31.1759287 23.8153846,31.4845436 26.0836923,30.6080773 C29.5679684,29.2599255 31.9018658,25.9421558 32,22.1977044 C31.244636,13.9693753 24.2344975,7.75220946 16,8.00759194 L16,8.00759194 Z M6.24492307,24.003719 C5.12066753,24.004218 4.10685973,23.3252705 3.67639578,22.2835749 C3.24593183,21.2418794 3.48361963,20.0426655 4.27858843,19.2453131 C5.07355722,18.4479607 6.26918615,18.2095602 7.30776767,18.6413148 C8.34634918,19.0730695 9.02326703,20.089917 9.02276951,21.2175435 C9.02276951,22.7563056 7.77908515,24.003719 6.24492307,24.003719 Z M11.4867692,17.1092622 C10.3632353,17.1092622 9.35033182,16.4304324 8.92037402,15.38931 C8.49041621,14.3481877 8.72807694,13.1498041 9.52253539,12.3529636 C10.3169938,11.556123 11.511795,11.3177497 12.549805,11.7489967 C13.5878149,12.1802437 14.2646154,13.1961843 14.2646154,14.323087 C14.2646154,15.861849 13.0209313,17.1092622 11.4867692,17.1092622 Z M20.3975385,17.1092622 C19.2740046,17.1092622 18.261101,16.4304324 17.8311432,15.38931 C17.4011854,14.3481877 17.6388462,13.1498041 18.4333046,12.3529636 C19.2277631,11.556123 20.4225642,11.3177497 21.4605742,11.7489967 C22.4985842,12.1802437 23.1753846,13.1961843 23.1753846,14.323087 C23.1747055,15.8615668 21.9314191,17.108581 20.3975385,17.1092622 Z M25.6873846,24.0037187 C24.563241,24.0037187 23.5498109,23.3244544 23.1197348,22.2827193 C22.6896587,21.2409841 22.9276504,20.0419727 23.722716,19.2448763 C24.5177817,18.4477799 25.713314,18.2096058 26.7517444,18.6414328 C27.7901748,19.0732598 28.4669594,20.0900294 28.4664618,21.2175435 C28.465782,22.7565053 27.2217459,24.0037187 25.6873846,24.0037187 L25.6873846,24.0037187 Z" id="形状"></path>
                    </g>
                </g>
            </g>
        </g>
    </g>
</svg>