<?xml version="1.0" encoding="UTF-8"?>
<svg width="90px" height="82px" viewBox="0 0 90 82" version="1.1" xmlns="http://www.w3.org/2000/svg" xmlns:xlink="http://www.w3.org/1999/xlink">
    <title>编组 13备份</title>
    <defs>
        <rect id="path-1" x="0" y="0" width="90" height="82" rx="16"></rect>
    </defs>
    <g id="页面-1" stroke="none" stroke-width="1" fill="none" fill-rule="evenodd">
        <g id="路径-3">
            <mask id="mask-2" fill="white">
                <use xlink:href="#path-1"></use>
            </mask>
            <use id="蒙版" fill-opacity="0" fill="#FFFFFF" fill-rule="nonzero" xlink:href="#path-1"></use>
            <path d="M50,4.02040338 C18.6133077,4.02040338 7,31.4770101 7,46.8707577 C7,62.2645053 18.1667692,90 49.0837693,90 C49.0837693,90 56.7741539,90.139132 56.7741539,83.2053103 C56.7741539,76.2714886 53.3076923,78.490975 53.3076923,73.49796 C52.9323217,70.134086 55.1416316,67.026052 58.4346154,66.2854584 C60.0884615,66.2854584 71.0038461,67.1148629 77.0999231,64.7593541 C86.4639152,61.1361875 92.7362643,52.2196597 93,42.1564225 C90.9699593,20.0427348 72.130212,3.33406131 50,4.02040338 L50,4.02040338 Z M23.5034304,47 C20.4694038,47.0013426 17.7334423,45.1745456 16.57175,42.3717273 C15.4100576,39.5689091 16.0515053,36.3422673 18.1968863,34.1968863 C20.3422673,32.0515053 23.5689091,31.4100576 26.3717273,32.57175 C29.1745456,33.7334423 31.0013426,36.4694038 31,39.5034304 C31,43.643671 27.643671,47 23.5034304,47 Z M37.5001096,28 C34.4666871,28 31.7319549,26.1727104 30.5711144,23.3701934 C29.4102738,20.5676764 30.0519326,17.3418398 32.1968863,15.1968862 C34.3418399,13.0519326 37.5676765,12.4102738 40.3701935,13.5711144 C43.1727104,14.731955 45,17.4666872 45,20.5001097 C45,24.6421847 41.6421847,28 37.5001096,28 Z M61.5001096,28 C58.4666871,28 55.7319549,26.1727104 54.5711144,23.3701934 C53.4102738,20.5676764 54.0519326,17.3418398 56.1968863,15.1968862 C58.3418399,13.0519326 61.5676765,12.4102738 64.3701935,13.5711144 C67.1727104,14.731955 69,17.4666872 69,20.5001097 C68.9981663,24.641425 65.6414249,27.9981663 61.5001096,28 Z M76.5001091,47 C73.4663844,47 70.7314424,45.1723504 69.5707968,42.3694256 C68.4101512,39.5665008 69.052419,36.3404037 71.1980613,34.1957115 C73.3437036,32.0510193 76.5700847,31.4101806 79.372495,32.5720678 C82.1749053,33.733955 84.0013428,36.4697064 84,39.5034309 C83.9981654,43.6442089 80.6408873,47 76.5001091,47 L76.5001091,47 Z" id="形状" fill-opacity="0.15" fill="#BFBFBF" fill-rule="nonzero" mask="url(#mask-2)"></path>
        </g>
    </g>
</svg>