<?xml version="1.0" encoding="UTF-8"?>
<svg width="90px" height="82px" viewBox="0 0 90 82" version="1.1" xmlns="http://www.w3.org/2000/svg" xmlns:xlink="http://www.w3.org/1999/xlink">
    <title>编组 13</title>
    <defs>
        <rect id="path-1" x="0" y="0" width="90" height="82" rx="16"></rect>
    </defs>
    <g id="页面-1" stroke="none" stroke-width="1" fill="none" fill-rule="evenodd">
        <g id="路径-3">
            <mask id="mask-2" fill="white">
                <use xlink:href="#path-1"></use>
            </mask>
            <use id="蒙版" fill-opacity="0" fill="#FFFFFF" xlink:href="#path-1"></use>
            <path d="M47.5605512,55.6933138 C49.7799885,57.7473796 52.6795865,58.9033909 55.6991245,58.9379989 C56.2798117,58.9861534 56.8522146,58.7756154 57.2642347,58.362329 L91.227127,25.7584767 C93.7464307,23.2646394 95.1117387,19.8278703 94.9928343,16.2793943 C94.87393,12.7309184 93.2816412,9.39387534 90.6010829,7.07537041 C88.0048029,4.82855063 84.6091722,3.73769183 81.1947514,4.05355192 C77.7803306,4.36941202 74.640845,6.06481917 72.4979744,8.75004669 L44.5346714,47.1629319 C44.1862729,47.6460116 44.0539673,48.2527304 44.1694791,48.8376081 C44.5679935,51.4189627 45.7524467,53.8135632 47.5605512,55.6933138 L47.5605512,55.6933138 Z M8.22411381,74.0624184 C10.563435,74.7040146 13.0546766,73.829351 14.4845548,71.8644059 C16.7800497,68.5150534 17.4582642,61.3976797 22.4144467,57.0016545 C26.1029678,53.5777559 31.0855285,51.918063 36.0830761,52.4486286 C36.674596,52.5233231 37.155176,52.9634868 37.282994,53.5476349 C37.75519,56.9839202 39.4619604,60.1289965 42.0826654,62.3920186 C45.1168498,64.3251581 48.4752808,65.6904664 51.9950303,66.4217081 C52.6328881,66.5253659 53.0989234,67.0819064 53.0906075,67.730049 C53.4036295,72.3354085 53.0906075,89.710174 30.2399979,88.9775032 C4.05048654,88.5588341 5.92861883,73.2250802 8.22411381,74.0624184 Z" id="形状" fill-opacity="0.1" fill="#EE3939" fill-rule="nonzero" mask="url(#mask-2)"></path>
        </g>
    </g>
</svg>