<?xml version="1.0" encoding="UTF-8"?>
<svg width="32px" height="31px" viewBox="0 0 32 31" version="1.1" xmlns="http://www.w3.org/2000/svg" xmlns:xlink="http://www.w3.org/1999/xlink">
    <title>编组</title>
    <g id="页面-1" stroke="none" stroke-width="1" fill="none" fill-rule="evenodd">
        <g id="生成页面-参考图" transform="translate(-124, -268)" fill="#EE3939" fill-rule="nonzero">
            <g id="编组-15" transform="translate(24, 200)">
                <g id="编组-13" transform="translate(24, 24)">
                    <g id="编组-8" transform="translate(76, 36)">
                        <g id="编组" transform="translate(0, 8)">
                            <path d="M14.7492914,18.8528556 C15.5563594,19.6019855 16.6107587,20.0235896 17.7087725,20.0362114 C17.9199315,20.0537736 18.128078,19.9769891 18.2779035,19.8262612 L30.6280462,7.93544445 C31.5441566,7.02592733 32.0406322,5.77251739 31.9973943,4.47836733 C31.9541564,3.18421728 31.3751423,1.96717807 30.4003938,1.12160568 C29.456292,0.302177289 28.2215172,-0.0956653341 26.9799096,0.0195307005 C25.738302,0.134726735 24.5966709,0.753051696 23.8174453,1.73236997 L13.6489714,15.7417752 C13.5222811,15.9179572 13.4741699,16.1392311 13.5161742,16.3525394 C13.6610885,17.2939746 14.0917988,18.1672995 14.7492914,18.8528556 L14.7492914,18.8528556 Z M0.445132293,25.5521761 C1.29579453,25.78617 2.20170058,25.4671751 2.72165628,24.750548 C3.55638173,23.5290195 3.80300517,20.9332714 5.60525336,19.3300152 C6.94653375,18.0812992 8.75837402,17.4759994 10.575664,17.6694998 C10.7907622,17.6967413 10.9655185,17.8572717 11.0119978,18.0703139 C11.1837055,19.3235474 11.8043492,20.4705752 12.7573329,21.2959127 C13.8606727,22.00094 15.0819203,22.498876 16.3618292,22.7655641 C16.5937775,22.8033687 16.7632449,23.0063423 16.7602209,23.2427237 C16.8740471,24.9223255 16.7602209,31.2590046 8.45090834,30.9917953 C-1.07255035,30.8391042 -0.389593154,25.246794 0.445132293,25.5521761 Z" id="形状"></path>
                        </g>
                    </g>
                </g>
            </g>
        </g>
    </g>
</svg>